<?xml version="1.0" encoding="iso-8859-1"?>
<!-- Generator: Adobe Illustrator 19.0.0, SVG Export Plug-In . SVG Version: 6.00 Build 0)  -->
<svg version="1.1" id="Capa_1" xmlns="http://www.w3.org/2000/svg" xmlns:xlink="http://www.w3.org/1999/xlink" x="0px" y="0px"
	 viewBox="0 0 381.6 381.6" style="enable-background:new 0 0 381.6 381.6;" xml:space="preserve">
<g>
	<path style="fill:#EAEBC2;" d="M309.8,33.2H71.4c-30,0-54.8,24.8-54.8,54.8v238.8c0,30,24.8,54.8,54.8,54.8h238.4
		c30,0,54.8-24.8,54.8-54.8V88.4C364.6,58,340.2,33.2,309.8,33.2z"/>
	<path style="fill:#EE464A;" d="M309.8,33.2H71.4c-30,0-54.8,24.8-54.8,54.8v42.8H365V88.4C364.6,58,340.2,33.2,309.8,33.2z"/>
	<g>
		<circle style="fill:#D1C9A6;" cx="86.2" cy="186" r="17.2"/>
		<circle style="fill:#D1C9A6;" cx="155.8" cy="186" r="17.2"/>
		<circle style="fill:#D1C9A6;" cx="225.4" cy="186" r="17.2"/>
		<circle style="fill:#D1C9A6;" cx="295" cy="186" r="17.2"/>
		<circle style="fill:#D1C9A6;" cx="86.2" cy="255.6" r="17.2"/>
		<circle style="fill:#D1C9A6;" cx="155.8" cy="255.6" r="17.2"/>
		<circle style="fill:#D1C9A6;" cx="225.4" cy="255.6" r="17.2"/>
		<circle style="fill:#D1C9A6;" cx="295" cy="255.6" r="17.2"/>
		<circle style="fill:#D1C9A6;" cx="86.2" cy="324.4" r="17.2"/>
		<circle style="fill:#D1C9A6;" cx="155.8" cy="324.4" r="17.2"/>
		<circle style="fill:#D1C9A6;" cx="225.4" cy="324.4" r="17.2"/>
	</g>
	<circle style="fill:#EE464A;" cx="295" cy="324.4" r="17.2"/>
	<g>
		<path style="fill:#402810;" d="M105.4,0c-4.4,0-8,3.6-8,8v50.8c0,4.4,3.6,8,8,8s8-3.6,8-8V8C113.4,3.6,109.8,0,105.4,0z"/>
		<path style="fill:#402810;" d="M275.8,0c-4.4,0-8,3.6-8,8v50.8c0,4.4,3.6,8,8,8s8-3.6,8-8V8C283.8,3.6,280.2,0,275.8,0z"/>
	</g>
</g>
<g>
</g>
<g>
</g>
<g>
</g>
<g>
</g>
<g>
</g>
<g>
</g>
<g>
</g>
<g>
</g>
<g>
</g>
<g>
</g>
<g>
</g>
<g>
</g>
<g>
</g>
<g>
</g>
<g>
</g>
</svg>
