<?xml version="1.0"?>
<svg xmlns="http://www.w3.org/2000/svg" viewBox="0 0 512 512" width="512" height="512"><g id="Fill_out_line" data-name="Fill out line"><polygon points="208 48 200 64 208 72 216 88 232 88 232 120 264 96 256 72 240 40 208 48" style="fill:#fdc5ca"/><polygon points="184 104 208 112 208 128 232 136 232 168 168 136 184 104" style="fill:#fdc5ca"/><rect x="24" y="424" width="416" height="32" style="fill:#68737f"/><polygon points="144 248 81.6 456 49.6 456 112 248 144 248" style="fill:#3e454d"/><path d="M463.98548,488h-288V456h276a8,8,0,0,1,6.4,3.2l12,16A8,8,0,0,1,463.98548,488Z" style="fill:#4f5761"/><path d="M336,488H40l7.5-32H324a8,8,0,0,1,6.4,3.2l12,16A8,8,0,0,1,336,488Z" style="fill:#3e454d"/><path d="M192,488H72V456H180a8,8,0,0,1,6.4,3.2l12,16A8,8,0,0,1,192,488Z" style="fill:#4f5761"/><polygon points="112 248 40 176 72 144 144 216 144 248 112 248" style="fill:#68737f"/><path d="M144,216h48a16,16,0,0,1,16,16v0a16,16,0,0,1-16,16H144a0,0,0,0,1,0,0V216A0,0,0,0,1,144,216Z" style="fill:#4f5761"/><polygon points="89.95 456 80.35 488 31.65 488 41.25 456 89.95 456" style="fill:#8f9eb0"/><polygon points="440 464 480 464 488 416 440 416 440 464" style="fill:#8f9eb0"/><path d="M224,392l-8.83008,17.66992L208,424l-56-32a30.06006,30.06006,0,0,1,1.58008-2.77A28.97375,28.97375,0,0,1,177.89,376H200Z" style="fill:#529ddf"/><path d="M416,320v64a23.61906,23.61906,0,0,1-21.93994-14.85986L384,344V320Z" style="fill:#529ddf"/><path d="M304,200a96.58206,96.58206,0,0,1-28.28,68.27979l-6.91992,6.92041L240,304l8,24-24,64-24-16,6.93994-76.37012a79.84868,79.84868,0,0,1,5.40015-22.46972L217.21,264.96973,240,208Z" style="fill:#fdc5ca"/><path d="M384,320v24l-80.6-20.1499a32.0202,32.0202,0,0,1-21.65-18.43994l-5.04-11.76026-7.90991-18.4497L240,208l64-8a151.78518,151.78518,0,0,1,16,67.77979V288h24Z" style="fill:#fdc5ca"/><path d="M320,267.77979V272l-43.29,21.6499L275.59009,291.04l-6.79-15.83984-17.24,17.23974L217.21,264.96973,240,208l64-8a151.78518,151.78518,0,0,1,16,67.77979Z" style="fill:#529ddf"/><path d="M227.88759,116.56206v0A31.45382,31.45382,0,0,1,252.562,91.8876l8.41255-1.68251a17.841,17.841,0,0,1,17.7717,6.78993l5.14749,6.86332a72.36549,72.36549,0,0,1,14.11394,36.21859L304,200l-64,8-11.69981-52.64915A93.909,93.909,0,0,1,227.88759,116.56206Z" style="fill:#e04446"/><path d="M264.41887,91.89528h0A21.67605,21.67605,0,0,0,248,112.92415v.05435a21.676,21.676,0,0,0,14.06507,20.29591L269.33334,136,288,152h0a67.77706,67.77706,0,0,0-30.3108,7.15541L256,160l-16-8-24,8,8,32,82.554-19.05092a16,16,0,0,0,10.12213-23.82219l-28.413-47.355A21.67606,21.67606,0,0,0,264.41887,91.89528Z" style="fill:#fdc5ca"/><path d="M256,72,232,48H208a24,24,0,0,1-24-24v0h64Z" style="fill:#ba8b5d"/><path d="M494.104,410.8291A7.99789,7.99789,0,0,0,488,408H440a8.00008,8.00008,0,0,0-8,8H220.94434l10.21093-20.42188a8.02222,8.02222,0,0,0,.33252-.7705l.00293.001,24-64a7.99838,7.99838,0,0,0,.09864-5.33886l-6.43653-19.3086,16.94873-16.94873,8.293,19.34912a40.21986,40.21986,0,0,0,27.064,23.04883l76.63281,19.1582,8.53857,21.34766A31.48144,31.48144,0,0,0,416,392a8.00008,8.00008,0,0,0,8-8V320a8.00008,8.00008,0,0,0-8-8H386.8064l-37.80884-30.24707A8.00033,8.00033,0,0,0,344,280H328V267.77734a160.38456,160.38456,0,0,0-16.17969-69.97485l-1.75268-17.52661a23.99313,23.99313,0,0,0,13.4685-35.26514L295.12305,97.65527A29.49663,29.49663,0,0,0,273.4751,83.48389a25.83191,25.83191,0,0,0-5.68067-1.398l-4.0061-12.01856-7.89722-47.38281A8,8,0,0,0,248,16H184a8.00008,8.00008,0,0,0-8,8,32.04494,32.04494,0,0,0,20.18982,29.73169l-3.34509,6.69019a8.00091,8.00091,0,0,0,1.49853,9.23535l7.082,7.082,7.41944,14.83886A7.99967,7.99967,0,0,0,216,96h8v7.98364a39.59474,39.59474,0,0,0-3.957,11.00952q-.8141,4.07118-1.29248,8.158L216,122.23438V112a8.00071,8.00071,0,0,0-5.47021-7.58984l-24-8a8.00151,8.00151,0,0,0-9.68506,4.01172l-16,32a8.00009,8.00009,0,0,0,3.57763,10.73339l44.70874,22.3545,7.10767,28.43066a7.98913,7.98913,0,0,0,9.56006,5.85449l3.97851-.918,1.8772,8.44678L204.90869,274.1875a87.95365,87.95365,0,0,0-5.9331,24.71582L192.69409,368H177.88867a36.7425,36.7425,0,0,0-33.04394,20.42188,8.00053,8.00053,0,0,0,3.186,10.52441L177.87476,416H101.95239l47.99988-160H192a24,24,0,0,0,0-48H147.314L77.65674,138.34277a8.00182,8.00182,0,0,0-11.31348,0l-32,32a8.00034,8.00034,0,0,0,0,11.31446l68.6211,68.62109L53.2478,416H24a8.00008,8.00008,0,0,0-8,8v32a8.00008,8.00008,0,0,0,8,8h6.4978l-6.5105,21.70117A7.99993,7.99993,0,0,0,31.6499,496H463.98535a15.99357,15.99357,0,0,0,13.84937-24H480a8,8,0,0,0,7.89111-6.68457l8-48A7.999,7.999,0,0,0,494.104,410.8291ZM220.04932,379.75146l-11.65113-7.76708,6.512-71.63184a71.96172,71.96172,0,0,1,4.854-20.22266l.87073-2.17676,18.94348,15.1543-5.23511,5.23535a8.00083,8.00083,0,0,0-1.93262,8.1875l7.1045,21.3125Zm61.27636-130.92431a88.70875,88.70875,0,0,1-11.2666,13.7998l-19.09717,19.09717L226.844,262.43018l18.8313-47.07764,53.56836-6.69556A144.3743,144.3743,0,0,1,311.9895,267.061l-31.27258,15.63671-2.4303-5.67041,3.08594-3.08593a104.80682,104.80682,0,0,0,13.30273-16.29395ZM392,328h16v45.81543a15.5936,15.5936,0,0,1-6.51465-7.6416L392,342.459Zm-50.80615-32L376,323.84521v9.9087l-70.66064-17.665a24.13581,24.13581,0,0,1-16.23877-13.83008l-2.07-4.82959L312,284.94434V288a8.00008,8.00008,0,0,0,8,8ZM234.69031,145.33691a85.33684,85.33684,0,0,1,1.04211-27.206,23.43133,23.43133,0,0,1,4.67041-10.029,29.68035,29.68035,0,0,0,18.853,32.66284l5.94482,2.22949,3.96143,3.39551a75.93763,75.93763,0,0,0-13.12793,4.68359l-12.45654-6.22851a7.99906,7.99906,0,0,0-6.10743-.43457ZM241.22314,32l2.78174,16.69141-6.34814-6.34864A8.00035,8.00035,0,0,0,232,40H208a16.008,16.008,0,0,1-13.85254-8Zm-20.2788,48-5.78907-11.57812a8.011,8.011,0,0,0-1.49853-2.07911l-3.92285-3.92285L212.94409,56h15.74243L249.0083,76.32227l2.53662,7.61035-.55176.11035a39.604,39.604,0,0,0-10.99365,3.949A7.99982,7.99982,0,0,0,232,80Zm-32.89209,33.7832L200,117.76562V128a8.00071,8.00071,0,0,0,5.47021,7.58984l12.70435,4.23487a101.33535,101.33535,0,0,0,1.08008,10.65722l-2.64136.88062-37.88037-18.94067Zm37.50586,51.46387,13.82812-4.60937,13.03613,6.51757a7.9964,7.9964,0,0,0,7.15625,0l1.6875-.84472A60.101,60.101,0,0,1,288,160a8.00031,8.00031,0,0,0,5.20654-14.07422l-18.6665-16a8.00629,8.00629,0,0,0-2.39746-1.416l-7.26856-2.72559a13.7134,13.7134,0,0,1,1.48487-26.12793h.001a13.60172,13.60172,0,0,1,15.04346,6.23145l28.41309,47.35546a8.00094,8.00094,0,0,1-5.061,11.91114L229.856,182.43848Zm68.79931,18.72681.90552,9.05591-49.03247,6.1289-.86218-3.87988ZM177.88867,384h19.689l16.1084,10.73926-9.05958,18.11914L163.73,389.48926A20.83673,20.83673,0,0,1,177.88867,384ZM432,432v16H92.35229l4.8-16ZM95.90234,464h84.0979l12,16H91.10229ZM75.64783,448H60.35229l57.59986-192h15.29541ZM152,224h40a8,8,0,0,1,0,16H152ZM72,155.31348,136,219.314V240H115.314l-64-64ZM41.25,448H32V432H48.44775l-4.79992,16H41.25ZM74.398,480H42.40234l4.79981-16h31.9956Zm137.60181,0-12-16H324l12,16Zm251.98559,0h-111.979a15.93181,15.93181,0,0,0-3.20655-9.59961l-4.8-6.40039H432a8.00008,8.00008,0,0,0,8,8h17.9856Zm9.23779-24H448V424h30.55615Z"/></g></svg>
