<?xml version="1.0" encoding="iso-8859-1"?>
<!-- Generator: Adobe Illustrator 19.0.0, SVG Export Plug-In . SVG Version: 6.00 Build 0)  -->
<svg version="1.1" id="Capa_1" xmlns="http://www.w3.org/2000/svg" xmlns:xlink="http://www.w3.org/1999/xlink" x="0px" y="0px"
	 viewBox="0 0 468.293 468.293" style="enable-background:new 0 0 468.293 468.293;" xml:space="preserve">
<g>
	<rect x="184.632" y="96.562" style="fill:#DC8744;" width="28.522" height="48.559"/>
	<rect x="383.469" y="96.562" style="fill:#DC8744;" width="28.522" height="48.559"/>
</g>
<path style="fill:#64798A;" d="M441.083,81.145H12.14C5.435,81.145,0,86.58,0,93.285s5.435,12.14,12.14,12.14h428.943
	c6.704,0,12.14-5.435,12.14-12.14S447.788,81.145,441.083,81.145z"/>
<path style="fill:#FCD462;" d="M438.966,139.127H157.624c-16.196,0-29.326,13.13-29.326,29.326v160.464
	c0,16.196,13.13,29.326,29.326,29.326h281.343c16.196,0,29.326-13.13,29.326-29.326V168.453
	C468.293,152.257,455.163,139.127,438.966,139.127z"/>
<g>
	<path style="fill:#CE412D;" d="M156.499,279.582v-61.794h12.477v24.321h24.448v-24.321H205.9v61.794h-12.477v-27.019h-24.448
		v27.019H156.499z"/>
	<path style="fill:#CE412D;" d="M216.269,249.064c0-6.295,0.941-11.577,2.824-15.849c1.405-3.147,3.323-5.971,5.754-8.472
		c2.431-2.501,5.093-4.356,7.988-5.564c3.85-1.63,8.29-2.445,13.32-2.445c9.105,0,16.39,2.824,21.855,8.472
		c5.466,5.648,8.198,13.502,8.198,23.562c0,9.976-2.712,17.781-8.135,23.415c-5.423,5.634-12.673,8.451-21.75,8.451
		c-9.189,0-16.495-2.803-21.919-8.409C218.981,266.62,216.269,258.9,216.269,249.064z M229.125,248.643
		c0,6.997,1.616,12.301,4.847,15.912c3.232,3.611,7.334,5.416,12.308,5.416c4.974,0,9.055-1.791,12.245-5.374
		c3.189-3.583,4.784-8.957,4.784-16.123c0-7.081-1.553-12.364-4.658-15.849c-3.105-3.484-7.229-5.227-12.371-5.227
		c-5.142,0-9.287,1.763-12.435,5.29C230.699,236.215,229.125,241.533,229.125,248.643z"/>
	<path style="fill:#CE412D;" d="M299.855,279.582v-51.34h-18.336v-10.453h49.106v10.453h-18.294v51.34H299.855z"/>
	<path style="fill:#CE412D;" d="M338.676,279.582v-61.794h45.818v10.453h-33.341v13.699h31.023v10.411h-31.023v16.818h34.522v10.411
		H338.676z"/>
	<path style="fill:#CE412D;" d="M396.591,279.582v-61.288h12.477v50.876h31.023v10.411H396.591z"/>
</g>
<path style="fill:#64798A;" d="M90.462,458.446V31.901c0-12.18-9.874-22.054-22.054-22.054s-22.054,9.874-22.054,22.054v426.544
	L90.462,458.446L90.462,458.446z"/>
<g>
</g>
<g>
</g>
<g>
</g>
<g>
</g>
<g>
</g>
<g>
</g>
<g>
</g>
<g>
</g>
<g>
</g>
<g>
</g>
<g>
</g>
<g>
</g>
<g>
</g>
<g>
</g>
<g>
</g>
</svg>
