<svg id="Layer_1" enable-background="new 0 0 128 128" viewBox="0 0 128 128" xmlns="http://www.w3.org/2000/svg"><g><g><path d="m64 6.5c-31.8 0-57.5 13.6-57.5 30.4v18c0 16.8 25.7 30.4 57.5 30.4s57.5-13.6 57.5-30.4v-18c0-16.8-25.7-30.4-57.5-30.4zm0 60.9c-25.8 0-47.7-9-54.9-21.4 7.2-12.5 29.1-21.5 54.9-21.5s47.7 9 54.9 21.4c-7.2 12.5-29.1 21.5-54.9 21.5z" fill="#dc4c12"/><path d="m121.5 36.9c0 3.2-.9 6.3-2.6 9-7.2-12.4-29.1-21.4-54.9-21.4s-47.7 9-54.9 21.4c-1.6-2.7-2.5-5.8-2.6-9 0-16.8 25.7-30.4 57.5-30.4s57.5 13.6 57.5 30.4z" fill="#ba400f"/><path d="m81.1 63.3v23.5c-5.7.9-11.4 1.3-17.1 1.3s-11.5-.4-17.1-1.3v-23.5c5.7 1 11.4 1.4 17.1 1.4s11.5-.5 17.1-1.4z" fill="#f3d232"/><path d="m73.2 109.2s7.3-7.1 9.8-1.4c1.4 3.1-2.6 4.1-2.6 5.7s4 2.6 2.6 5.7c-2.6 5.7-9.8-1.4-9.8-1.4h-18.4s-7.3 7.1-9.8 1.4c-1.4-3.1 2.6-4.1 2.6-5.7s-4-2.6-2.6-5.7c2.6-5.7 9.8 1.4 9.8 1.4z" fill="#eaeaf0"/><circle cx="64" cy="109.2" fill="#ba400f" r="4.5"/></g><path d="m123.3 36.9c0-8.6-6.1-16.7-17.2-22.8-.8-.5-1.9-.1-2.4.7s-.1 1.9.7 2.4c9.9 5.4 15.4 12.4 15.4 19.7 0 1.9-.4 3.7-1 5.5-9.2-11.8-30.6-19.6-54.8-19.6s-45.6 7.8-54.7 19.7c-.7-1.8-1-3.6-1.1-5.5 0-15.8 25-28.7 55.8-28.7 8.4 0 16.7 1 24.8 3 .9.2 1.9-.4 2.1-1.4.2-.9-.3-1.8-1.2-2-8.4-2.1-17-3.2-25.7-3.2-15.6 0-30.4 3.2-41.5 9.1-11.4 6.1-17.7 14.3-17.7 23.1v18c0 14 16.2 26.2 40.4 30.5v1.3c0 .9.6 1.6 1.5 1.7 1.4.2 2.8.4 4.3.6 1 .1 1.8-.6 1.9-1.5.1-1-.6-1.8-1.5-1.9s-1.8-.2-2.7-.3v-7.9c2.9.4 5.9.6 8.9.7 1 0 1.8-.8 1.8-1.8s-.8-1.8-1.8-1.8c-3-.1-5.9-.3-8.9-.7v-8.5c10.2 1.5 20.5 1.5 30.7 0v19.9c-6.3.9-12.6 1.2-19 1-1 0-1.8.7-1.8 1.7s.7 1.8 1.7 1.8h2v13.4c-2 .6-3.6 2.2-4.2 4.2h-2.6c-1.4-1.2-5.1-4.1-8.4-3.5-1.7.4-3.1 1.5-3.7 3.2-1.4 3.1.8 5.1 1.8 6 .1.1.3.3.4.4-.1.1-.3.3-.4.4-1 .9-3.2 2.9-1.8 6 .6 1.6 2 2.8 3.7 3.2 3.3.6 7-2.3 8.4-3.5h17.1c1.3 1.1 4.4 3.6 7.4 3.6 2.1 0 4-1.3 4.7-3.3 1.4-3.1-.8-5.1-1.8-6-.1-.1-.3-.3-.4-.4l.4-.4c1-.9 3.2-2.9 1.8-6-.6-1.6-2-2.8-3.7-3.2-3.3-.6-7 2.3-8.4 3.5h-2.6c-.6-2-2.2-3.6-4.2-4.2v-13.3c5.2-.1 10.5-.5 15.6-1.3.8-.1 1.5-.9 1.5-1.7v-1.3c24.2-4.4 40.4-16.5 40.4-30.5zm-50 74c.5 0 .9-.2 1.2-.5 1.5-1.4 4.3-3.4 5.8-3.1.2 0 .7.1 1.2 1.2.3.7.2.9-1 2-1.7.9-2.2 3-1.3 4.7.3.6.8 1 1.3 1.3 1.2 1.1 1.3 1.4 1 2-.5 1-1 1.1-1.2 1.2-1.5.3-4.3-1.6-5.8-3.1-.3-.3-.8-.5-1.2-.5h-18.5c-.5 0-.9.2-1.2.5-1.4 1.4-4.3 3.4-5.8 3.1-.2 0-.7-.1-1.2-1.2-.3-.7-.2-.9 1-2 1.7-.9 2.2-3 1.3-4.7-.3-.6-.8-1-1.3-1.3-1.2-1.1-1.3-1.4-1-2 .5-1 1-1.1 1.2-1.2 1.5-.3 4.3 1.6 5.8 3.1.3.3.8.5 1.2.5h3.2c1 3.3 4.4 5.2 7.7 4.3 2.1-.6 3.7-2.2 4.3-4.3zm-6.5-1.7c0 1.5-1.2 2.8-2.8 2.8s-2.8-1.2-2.8-2.8 1.2-2.8 2.8-2.8c1.5 0 2.7 1.3 2.8 2.8zm-26.8-33.5c1.3.3 3.1.7 5.2 1.1v5.1c-21.8-4.1-36.9-15-36.9-27v-7c6.1 9.2 19.7 16.4 36.9 19.5v5.8c-1.7-.3-3.2-.6-4.3-.9-.9-.3-1.9.3-2.1 1.2s.2 2 1.2 2.2zm7.2-14.2c-1-.2-1.9.5-2 1.4v.9c-16-3-28.5-9.6-34-18 7.5-11.5 29-19.5 52.8-19.5s45.3 8 52.9 19.7c-5.5 8.4-18 15-34 18v-.6c0-1-.9-2-2-1.7-11.2 1.7-22.6 1.7-33.7-.2zm72.6-6.6c0 11.9-15.1 22.9-36.9 27v-14.4c17.2-3.1 30.8-10.3 36.9-19.5zm-26-44c.3-.9 1.3-1.4 2.2-1.1 1.4.5 2.7 1 4.1 1.5.9.4 1.3 1.4.9 2.3s-1.4 1.3-2.3.9c-1.3-.5-2.6-1-3.9-1.5-.9-.2-1.3-1.2-1-2.1zm-54.3 4.7c.3.9-.3 1.9-1.2 2.2-2.3.7-4.6 1.5-6.8 2.4-.9.4-1.9 0-2.3-.9s0-1.9.9-2.3c2.3-1 4.7-1.8 7.2-2.6.9-.3 1.9.3 2.2 1.2zm56.3 55.5c.3.9-.1 1.9-1 2.3-.9.3-1.9-.1-2.2-1s.1-1.9 1-2.2c.8-.4 1.8 0 2.2.9zm6.9-3.3c.4.9.1 1.9-.8 2.3-.2.1-.5.2-.8.2-1 0-1.7-.8-1.7-1.7 0-1 .8-1.7 1.7-1.7.7 0 1.3.4 1.6.9zm6.7-3.9c.5.8.3 1.9-.5 2.4s-1.9.3-2.4-.5-.3-1.9.5-2.4c.8-.6 1.8-.3 2.4.5zm-21 9.5c.3.9-.1 1.9-1 2.3-.9.3-1.9-.1-2.2-1s.1-1.9 1-2.2c.8-.4 1.8 0 2.2.9zm27.2-14.1c.5.8.3 1.9-.5 2.4s-1.9.3-2.4-.5-.3-1.9.5-2.4c.8-.5 1.8-.3 2.4.5z" fill="#0b1523"/></g></svg>