<svg height="512pt" viewBox="0 -57 512 512" width="512pt" xmlns="http://www.w3.org/2000/svg"><path d="m0 189.882812v177.398438c3.855469-.011719 9.746094.09375 16.875.742188 35.085938 3.191406 43.59375 19.175781 74.59375 22.777343 20.15625 2.339844 36.117188-1.882812 39.65625-2.863281 11.949219-3.324219 16.027344-6.960938 27.777344-11.558594 0 0 22.265625-8.707031 47.394531-9.097656 32.722656-.503906 36.554687 15.125 76.679687 20.5625 9.738282 1.320312 27.632813 3.601562 49.816407-.542969 32.097656-5.996093 41.574219-19.539062 72.289062-20.015625 14.726563-.234375 27.21875 2.652344 32.046875 3.792969 20.253906 4.796875 28.597656 11.589844 49.832032 15.90625 10.507812 2.132813 19.320312 2.675781 25.039062 2.808594 0-59.132813 0-118.265625 0-177.398438-9.355469-.457031-23.78125-1.542969-41.15625-4.496093-44.558594-7.578126-47.171875-17.019532-71.097656-17.917969-38.492188-1.449219-42.210938 22.597656-87.308594 22.265625-15.777344-.117188-29.304688-3.160156-51.53125-8.164063-35.457031-7.980469-37.050781-13.226562-54.609375-14.199219-29.539063-1.636718-31.511719 12.851563-68.597656 18.121094-10.636719 1.511719-47.515625 6.753906-79.738281-6.359375-6.605469-2.691406-23.242188-10.316406-46.613282-11.640625-4.777344-.269531-8.730468-.214844-11.347656-.121094zm0 0" fill="#83d9ff"/><path d="m406.457031 105.335938-45.628906-21.96875c-3.625-1.746094-7.742187-2.171876-11.648437-1.203126l-108.808594 42.324219c-4.109375 1.601563-7.257813 4.996094-8.542969 9.214844l-35.136719 115.613281c-40.328125 2.6875-43.511718 22.207032-89.785156 22.207032-29.367188 0-41.375-7.855469-56.546875-14.296876v-.96875l67.390625-42.089843c4.835938-3.019531 8.683594-7.394531 11.0625-12.574219l51.121094-111.246094c3.984375-8.675781 12.292968-14.574218 21.792968-15.464844l166.9375-28.222656c6.121094-.585937 12.15625 1.824219 16.207032 6.449219l32.113281 36.671875c6.582031 7.519531-1.105469 18.875-10.527344 15.554688zm0 0" fill="#fedfc5"/><path d="m416.984375 89.78125-32.113281-36.671875c-4.050782-4.625-10.085938-7.035156-16.207032-6.449219l-15.863281 2.683594c1.667969 1.007812 3.1875 2.269531 4.503907 3.769531l32.109374 36.671875c2.28125 2.601563 2.847657 5.664063 2.226563 8.417969l14.816406 7.136719c9.421875 3.316406 17.109375-8.039063 10.527344-15.558594zm0 0" fill="#fecbaa"/><path d="m333.261719 83.367188c-3.625-1.746094-7.746094-2.171876-11.648438-1.203126l-99.75 38.800782c-9.828125 3.824218-17.359375 11.949218-20.429687 22.042968l-32.304688 106.308594c-35.894531 2.394532-42.367187 18.117188-75.980468 21.546875 4.140624.421875 8.6875.660157 13.757812.660157 46.273438 0 49.457031-19.515626 89.789062-22.207032l35.132813-115.609375c1.285156-4.21875 4.433594-7.617187 8.542969-9.214843l98.621094-38.367188zm0 0" fill="#fecbaa"/><path d="m337.761719 266.515625-2.609375 1.507813c-7.757813 2.09375-17.066406 3.5-29.46875 3.5-40.046875 0-47.824219-14.621094-75.347656-20.296876-2.777344-16.859374 4.910156-34.417968 20.578124-43.46875l39.699219-22.914062c20.203125-11.671875 46.046875-4.742188 57.71875 15.464844l4.894531 8.472656c11.671876 20.21875 4.738282 46.0625-15.464843 57.734375zm0 0" fill="#fedfc5"/><path d="m353.226562 208.785156-4.894531-8.476562c-11.007812-19.050782-34.605469-26.292969-54.203125-17.277344 7.707032 3.523438 14.4375 9.382812 19 17.277344l4.898438 8.476562c11.671875 20.214844 4.738281 46.058594-15.46875 57.730469l-2.609375 1.507813c-3.570313.960937-7.472657 1.777343-11.847657 2.378906 5.125.707031 10.898438 1.121094 17.582032 1.121094 12.40625 0 21.714844-1.40625 29.46875-3.5l2.609375-1.507813c20.203125-11.671875 27.136719-37.515625 15.464843-57.730469zm0 0" fill="#fecbaa"/><path d="m479.21875 139.285156c1.335938 6.375-2.746094 12.628906-9.121094 13.964844-6.375 1.339844-12.625-2.742188-13.964844-9.117188-1.417968-6.765624 3.308594-16.402343 5.777344-20.824218.71875-1.289063 2.417969-1.628906 3.566406-.703125 4.054688 3.269531 12.484376 10.683593 13.742188 16.679687zm0 0" fill="#43a3f9"/><path d="m66.355469 83.304688c3.644531-5.402344 10.972656-6.824219 16.375-3.179688 5.398437 3.644531 6.820312 10.976562 3.175781 16.375-3.867188 5.726562-14.074219 9.046875-18.96875 10.355469-1.425781.378906-2.855469-.605469-2.988281-2.074219-.472657-5.1875-1.023438-16.398438 2.40625-21.476562zm0 0" fill="#43a3f9"/><path d="m504.480469 264.023438c-23.234375 0-34.589844-5.144532-46.609375-10.589844-3.773438-1.710938-8.21875-.035156-9.925782 3.738281-1.710937 3.773437-.035156 8.21875 3.738282 9.925781 12.941406 5.863282 26.324218 11.925782 52.796875 11.925782 4.144531 0 7.5-3.359376 7.5-7.5 0-4.140626-3.355469-7.5-7.5-7.5zm0 0"/><path d="m7.519531 241.511719c-4.144531 0-7.4999998 3.359375-7.4999998 7.5s3.3554688 7.5 7.4999998 7.5c18.183594 0 29.105469 3.046875 39.910157 7.621093 2.242187.953126 4.394531 1.925782 6.671874 2.957032 12.941407 5.867187 26.328126 11.933594 52.804688 11.933594 26.46875 0 39.851562-6.0625 52.792969-11.925782 10.375-4.703125 20.179687-9.144531 37.472656-10.296875.003906 0 .007813 0 .011719-.003906 2.976562-.191406 6.042968-.285156 9.113281-.285156 8.453125 0 15.820313.671875 22.527344 2.0625 9.628906 1.984375 16.644531 5.160156 24.070312 8.523437 12.941407 5.863282 26.324219 11.925782 52.789063 11.925782 11.765625 0 22.039062-1.230469 31.421875-3.761719.003906 0 .007812-.003907.011719-.003907 8.363281-2.269531 14.96875-5.261718 21.355468-8.15625 12.023438-5.445312 23.378906-10.589843 46.609375-10.589843 4.816407 0 9.378907.226562 13.5625.671875 4.128907.441406 7.816407-2.539063 8.257813-6.660156.441406-4.117188-2.542969-7.8125-6.660156-8.253907-4.714844-.503906-9.8125-.757812-15.160157-.757812-19.675781 0-32.121093 3.347656-42.53125 7.480469 5.460938-13.191407 5.234375-28.574219-1.789062-42.050782 11.222656-5.046875 22.566406-9.5625 44.316406-9.5625 23.234375 0 34.589844 5.144532 46.609375 10.59375 12.941406 5.859375 26.320312 11.921875 52.785156 11.921875 4.144532 0 7.5-3.359375 7.5-7.5s-3.355468-7.5-7.5-7.5c-23.226562 0-34.578125-5.144531-46.597656-10.589843-12.941406-5.859376-26.324219-11.925782-52.796875-11.925782-25.863281 0-39.234375 5.792969-51.90625 11.53125-14.402344-21.699218-43.46875-28.757812-66.3125-15.566406l-27.707031 15.996094c-.027344-.015625-.058594-.027344-.089844-.042969-9.53125-4.316406-19.359375-8.75-34.535156-10.777344l14.476562-47.632812c.617188-2.03125 2.105469-3.640625 4.082032-4.40625l108.296874-42.128907c2.082032-.425781 4.265626-.152343 6.1875.769532l45.632813 21.972656c.246094.117188.5.226562.761719.316406 7.492187 2.640625 15.515625-.003906 19.964844-6.578125 4.453124-6.578125 3.929687-15.015625-1.308594-20.992187l-32.113282-36.671875c-5.632812-6.429688-14.066406-9.78125-22.5625-8.972657-.179687.015626-.355468.039063-.535156.070313l-166.679687 28.179687c-12.003907 1.230469-22.566407 8.785157-27.613281 19.773438l-21.800782 47.441406c-1.730468 3.761719-.082031 8.214844 3.683594 9.945313s8.21875.082031 9.945312-3.683594l21.804688-47.445313c2.855469-6.222656 8.863281-10.488281 15.671875-11.125.1875-.015624.371094-.042968.550781-.074218l166.640625-28.171875c3.621094-.273438 7.203125 1.195312 9.613281 3.945312l32.113282 36.671875c.746094.851563.804687 1.761719.171875 2.695313-.578125.851562-1.339844 1.164062-2.28125.929687l-45.148438-21.742187c-5.191406-2.496094-11.125-3.109375-16.707031-1.726563-.3125.078125-.617188.175782-.914062.292969l-108.8125 42.324219c-6.292969 2.449218-11.03125 7.5625-12.996094 14.027344l-33.660156 110.757812c-.234376.027344-.457032.0625-.6875.089844-16.480469 1.875-26.800782 6.535156-36.796876 11.0625-12.019531 5.445312-23.371093 10.589844-46.601562 10.589844-19.945312 0-31.136719-3.792969-41.511719-8.3125l56.328125-35.179688c6.097656-3.808594 10.902344-9.273438 13.902344-15.804688l11.492188-25.003906c1.730468-3.765625.082031-8.21875-3.683594-9.949218-3.761719-1.730469-8.214844-.078126-9.945313 3.683593l-11.492187 25.003907c-1.023438 2.234374-2.417969 4.246093-4.101563 5.992187-3.433593.289063-7.109375.441406-10.992187.441406-23.222656 0-34.578125-5.140625-46.59375-10.585937-12.941406-5.863282-26.320313-11.925782-52.789063-11.925782-4.140625 0-7.4999998 3.355469-7.4999998 7.5 0 4.140626 3.3593748 7.5 7.4999998 7.5 23.226563 0 34.578125 5.140626 46.597657 10.585938 10.863281 4.925781 22.042968 9.984375 41.015624 11.484375l-46.457031 29.011719c-9.953125-3.800782-22.238281-6.953125-41.15625-6.953125zm286.84375-50.175781c16.589844-9.582032 37.882813-3.875 47.472657 12.722656l1.789062 3.097656c.007812.007812.011719.019531.019531.03125l3.085938 5.34375c9.582031 16.597656 3.875 37.898438-12.71875 47.488281l-1.703125.984375c-7.855469 2.023438-16.570313 3.019532-26.625 3.019532-23.226563 0-34.582032-5.144532-46.601563-10.585938-6.511719-2.949219-13.210937-5.980469-21.730469-8.253906-.023437-.003906-.042968-.011719-.0625-.019532-.269531-12.523437 6.328126-24.53125 17.371094-30.910156zm-51.121093 12.460937c-12.570313 8.949219-20.261719 23.332031-20.90625 38.578125-4.828126-.554688-9.945313-.835938-15.433594-.855469l13.199218-43.429687c9.546876 1.042968 16.691407 3.160156 23.140626 5.707031zm0 0"/><path d="m504.476562 323.160156c-23.230468 0-34.582031-5.144531-46.601562-10.585937-12.941406-5.863281-26.324219-11.925781-52.792969-11.925781s-39.851562 6.0625-52.792969 11.925781c-12.019531 5.445312-23.371093 10.585937-46.601562 10.585937s-34.582031-5.144531-46.601562-10.585937c-12.941407-5.863281-26.320313-11.925781-52.789063-11.925781-22.105469 0-35.28125 4.332031-46.230469 9.011718-3.8125 1.628906-5.578125 6.035156-3.949218 9.84375 1.625 3.808594 6.027343 5.578125 9.84375 3.949219 8.832031-3.777344 19.964843-7.804687 40.335937-7.804687 23.230469 0 34.582031 5.144531 46.601563 10.585937 12.941406 5.863281 26.320312 11.925781 52.789062 11.925781s39.851562-6.0625 52.792969-11.925781c12.019531-5.441406 23.371093-10.585937 46.601562-10.585937s34.585938 5.144531 46.605469 10.585937c12.941406 5.863281 26.320312 11.925781 52.789062 11.925781 4.144532 0 7.5-3.359375 7.5-7.5s-3.355468-7.5-7.5-7.5zm0 0"/><path d="m128.355469 321.316406c-6.433594 1.242188-13.445313 1.84375-21.445313 1.84375-23.226562 0-34.578125-5.144531-46.597656-10.585937-12.941406-5.863281-26.324219-11.925781-52.792969-11.925781-4.140625 0-7.4999998 3.359374-7.4999998 7.5 0 4.140624 3.3593748 7.5 7.4999998 7.5 23.230469 0 34.582031 5.144531 46.601563 10.585937 12.941406 5.863281 26.324218 11.925781 52.789062 11.925781 8.964844 0 16.910156-.691406 24.289063-2.117187 4.066406-.785157 6.726562-4.714844 5.941406-8.785157-.785156-4.066406-4.714844-6.722656-8.785156-5.941406zm0 0"/><path d="m504.476562 382.292969c-23.230468 0-34.582031-5.140625-46.601562-10.585938-12.941406-5.863281-26.324219-11.925781-52.792969-11.925781s-39.851562 6.0625-52.792969 11.925781c-12.019531 5.445313-23.371093 10.585938-46.601562 10.585938s-34.582031-5.140625-46.601562-10.585938c-12.941407-5.863281-26.320313-11.925781-52.789063-11.925781-26.464844 0-39.847656 6.0625-52.789063 11.925781-12.019531 5.445313-23.371093 10.585938-46.597656 10.585938-23.230468 0-34.582031-5.140625-46.601562-10.585938-12.941406-5.863281-26.320313-11.925781-52.789063-11.925781-4.144531 0-7.4999998 3.359375-7.4999998 7.5 0 4.144531 3.3554688 7.5 7.4999998 7.5 23.226563 0 34.578125 5.144531 46.601563 10.589844 12.9375 5.859375 26.320312 11.921875 52.789062 11.921875 26.464844 0 39.847656-6.0625 52.785156-11.921875 12.023438-5.445313 23.371094-10.589844 46.601563-10.589844 23.226563 0 34.578125 5.144531 46.601563 10.589844 12.941406 5.859375 26.320312 11.921875 52.789062 11.921875s39.851562-6.0625 52.792969-11.921875c12.019531-5.445313 23.371093-10.589844 46.601562-10.589844s34.582031 5.144531 46.601563 10.589844c12.941406 5.859375 26.324218 11.921875 52.792968 11.921875 4.144532 0 7.5-3.355469 7.5-7.5 0-4.140625-3.355468-7.5-7.5-7.5zm0 0"/><path d="m462.113281 114.761719c-2.867187.554687-5.328125 2.335937-6.753906 4.890625-3.988281 7.144531-8.363281 17.457031-6.566406 26.019531 1.058593 5.042969 4.019531 9.375 8.332031 12.191406 3.175781 2.074219 6.804688 3.144531 10.511719 3.144531 1.332031 0 2.671875-.136718 4.003906-.417968 10.410156-2.1875 17.105469-12.433594 14.917969-22.847656-1.300782-6.199219-6.808594-13.257813-16.371094-20.972657-2.269531-1.832031-5.214844-2.566406-8.074219-2.007812zm9.765625 26.066406c.488282 2.316406-1.003906 4.597656-3.320312 5.082031-1.121094.238282-2.269532.023438-3.230469-.605468-.957031-.628907-1.617187-1.589844-1.851563-2.714844-.367187-1.753906.230469-5.257813 2.164063-9.875 4.089844 3.941406 5.976563 6.871094 6.238281 8.113281zm0 0"/><path d="m60.660156 112.65625c1.675782 1.171875 3.648438 1.78125 5.652344 1.78125.851562 0 1.714844-.113281 2.558594-.335938 7.90625-2.113281 18.355468-6.152343 23.253906-13.40625 5.949219-8.816406 3.617188-20.832031-5.199219-26.785156-4.273437-2.882812-9.414062-3.929687-14.472656-2.949218-5.058594.980468-9.429687 3.875-12.3125 8.144531-3.546875 5.253906-4.777344 14.121093-3.660156 26.355469.261719 2.902343 1.785156 5.527343 4.179687 7.195312zm11.910156-25.15625c.644532-.949219 1.617188-1.59375 2.742188-1.8125.273438-.054688.550781-.082031.828125-.082031.847656 0 1.675781.25 2.390625.738281 1.964844 1.324219 2.484375 4 1.160156 5.960938-1.003906 1.484374-3.9375 3.492187-8.597656 5.320312-.019531-5.683594.769531-9.074219 1.476562-10.125zm0 0"/><path d="m154 46.863281c-16.640625 15.519531-31.46875 32.980469-44.070312 51.90625-13.382813 20.101563-24.253907 41.851563-32.316407 64.636719-1.382812 3.90625.664063 8.191406 4.570313 9.574219.824218.289062 1.667968.429687 2.5.429687 3.089844 0 5.980468-1.921875 7.070312-5 7.648438-21.621094 17.964844-42.253906 30.664063-61.328125 11.953125-17.957031 26.023437-34.523437 41.8125-49.246093 3.03125-2.824219 3.195312-7.570313.371093-10.601563-2.824218-3.027344-7.570312-3.195313-10.601562-.371094zm0 0"/><path d="m112.359375 53.171875c1.777344 0 3.566406-.632813 4.996094-1.910156 10.429687-9.328125 27.949219-21.738281 52.195312-27.90625 15.277344-3.882813 31.023438-4.789063 46.785157-2.695313 4.117187.546875 7.878906-2.339844 8.425781-6.449218.542969-4.105469-2.34375-7.875-6.445313-8.421876-17.671875-2.347656-35.320312-1.328124-52.460937 3.03125-21.523438 5.472657-41.753907 16.28125-58.5 31.257813-3.085938 2.761719-3.351563 7.503906-.589844 10.589844 1.484375 1.660156 3.535156 2.503906 5.59375 2.503906zm0 0"/><path d="m365.625 14.976562c12.832031.976563 32.011719 4.996094 50.519531 18.605469 23.679688 17.414063 32.929688 40.808594 36.335938 53.203125.914062 3.328125 3.933593 5.511719 7.226562 5.511719.660157 0 1.328125-.085937 1.992188-.269531 3.996093-1.097656 6.34375-5.222656 5.246093-9.21875-3.921874-14.269532-14.582031-41.207032-41.914062-61.308594-21.371094-15.714844-43.480469-20.355469-58.269531-21.4765625-4.140625-.3164065-7.734375 2.7773435-8.046875 6.9101565-.316406 4.128906 2.78125 7.730468 6.910156 8.042968zm0 0"/></svg>